<?xml version="1.0" standalone="no"?>
<!DOCTYPE svg PUBLIC "-//W3C//DTD SVG 20010904//EN"
 "http://www.w3.org/TR/2001/REC-SVG-20010904/DTD/svg10.dtd">
<svg version="1.0" xmlns="http://www.w3.org/2000/svg"
 width="1036.000000pt" height="1080.000000pt" viewBox="0 0 1036.000000 1080.000000"
 preserveAspectRatio="xMidYMid meet">
<metadata>
Created by potrace 1.16, written by Peter Selinger 2001-2019
</metadata>
<g transform="translate(0.000000,1080.000000) scale(0.100000,-0.100000)"
fill="#000000" stroke="none">
<path d="M1178 9876 c-18 -33 -3 -364 22 -486 15 -75 24 -170 30 -336 10 -230
15 -281 44 -445 9 -48 20 -196 26 -330 5 -134 15 -266 20 -294 26 -122 32
-174 40 -395 5 -134 16 -271 25 -320 28 -148 35 -219 45 -455 7 -157 16 -262
30 -330 14 -70 23 -171 29 -335 7 -163 17 -283 35 -390 16 -104 27 -219 31
-349 4 -107 13 -235 21 -285 29 -179 43 -323 44 -451 0 -121 16 -279 40 -385
5 -25 14 -151 20 -280 6 -129 18 -278 26 -330 8 -52 19 -122 24 -155 5 -33 14
-166 20 -295 7 -156 17 -270 31 -340 13 -71 23 -180 29 -340 10 -230 13 -268
43 -440 8 -47 18 -170 22 -275 7 -191 13 -225 40 -225 8 0 31 -9 52 -19 21
-10 67 -22 102 -26 37 -4 85 -17 113 -31 30 -15 79 -28 121 -33 45 -5 90 -18
119 -34 29 -15 72 -27 115 -32 42 -4 85 -16 111 -31 27 -14 74 -27 122 -33 46
-6 92 -19 114 -31 20 -13 67 -26 108 -31 41 -5 92 -19 118 -33 27 -14 74 -27
115 -31 42 -5 90 -18 120 -33 28 -14 81 -28 124 -34 45 -5 85 -17 101 -28 16
-11 65 -26 117 -34 49 -8 105 -24 124 -35 19 -11 70 -26 113 -31 43 -6 96 -21
118 -32 22 -12 79 -27 126 -35 47 -7 93 -20 102 -27 23 -20 78 -36 127 -36 27
0 63 -10 93 -25 27 -14 84 -30 127 -36 43 -6 93 -20 110 -31 18 -11 74 -26
125 -34 55 -9 103 -23 119 -35 29 -20 149 -43 229 -43 80 0 200 23 229 43 16
12 64 26 119 35 51 8 107 23 125 34 17 11 67 25 110 31 43 6 100 22 127 36 30
15 66 25 93 25 49 0 104 16 127 36 9 7 55 20 102 27 47 8 104 23 126 35 22 11
74 25 116 31 42 6 96 21 119 33 23 12 80 27 126 35 47 8 95 22 111 33 16 11
56 23 101 28 42 5 100 21 130 35 30 13 82 27 116 31 38 3 82 16 111 31 28 14
78 29 118 34 39 5 90 19 114 31 24 12 78 27 119 32 44 5 89 18 108 29 18 11
72 27 119 34 48 8 102 24 122 35 21 13 65 25 106 29 43 5 91 18 123 34 31 16
77 29 119 33 66 7 166 44 180 66 4 6 9 75 11 152 2 78 11 182 19 231 32 188
43 305 44 440 1 147 8 225 35 365 8 47 20 193 26 325 7 154 17 279 30 350 12
67 26 213 34 370 9 165 22 304 35 380 15 81 25 192 30 340 8 210 18 313 40
409 12 52 30 325 30 446 0 47 7 123 15 170 9 47 20 110 26 140 5 30 14 165 19
299 7 174 16 271 30 340 14 66 24 165 30 318 10 242 13 273 42 443 12 71 23
205 29 350 5 129 13 259 19 288 5 28 14 76 20 105 5 28 14 160 20 291 5 132
17 278 26 325 27 152 34 222 44 456 5 134 16 259 24 300 9 39 20 108 25 155
14 116 17 448 5 460 -6 6 -1476 11 -4023 13 -3962 2 -4013 2 -4023 -17z m6620
-1878 c2 -221 0 -257 -12 -252 -33 13 -41 -34 -46 -298 -3 -141 -9 -260 -13
-265 -8 -8 -1814 -11 -3216 -5 -387 1 -707 -1 -711 -5 -14 -15 9 -350 35 -511
14 -92 27 -223 30 -308 3 -102 9 -151 17 -159 9 -7 226 -8 688 -4 949 8 3020
10 3032 3 11 -7 10 -595 -2 -644 -4 -19 -8 -29 -9 -22 -2 23 -17 12 -29 -20
-7 -21 -13 -153 -17 -353 -6 -290 -8 -322 -25 -340 -34 -38 -40 -92 -40 -392
0 -161 -3 -293 -8 -293 -12 0 -41 -61 -47 -100 -5 -29 -11 -282 -14 -591 -1
-57 -4 -67 -18 -65 -27 2 -41 -84 -42 -251 l-1 -141 -31 -26 c-27 -23 -39 -26
-107 -26 -98 0 -121 -7 -128 -36 -6 -23 -10 -24 -89 -24 -98 0 -132 -10 -145
-44 -9 -24 -13 -25 -112 -28 -101 -3 -103 -3 -116 -30 -13 -27 -16 -28 -95
-29 -102 -1 -131 -9 -135 -36 -4 -24 -41 -33 -139 -33 -75 0 -92 -6 -104 -36
-8 -23 -13 -24 -102 -24 -97 0 -144 -16 -133 -46 4 -10 -4 -14 -32 -15 -165
-5 -192 -11 -192 -39 0 -25 -19 -30 -110 -30 -93 0 -130 -11 -130 -40 0 -18
-6 -20 -74 -20 -40 0 -87 -5 -104 -11 -22 -8 -36 -7 -52 1 -11 6 -45 15 -75
20 -29 5 -77 20 -107 33 -29 14 -82 28 -118 32 -36 4 -86 18 -111 30 -25 13
-79 28 -121 34 -42 6 -92 20 -112 32 -19 11 -68 25 -108 30 -40 6 -97 21 -125
35 -29 13 -84 28 -121 33 -38 5 -88 19 -112 31 -25 13 -75 26 -111 30 -37 4
-91 19 -120 33 -30 13 -83 28 -119 32 -36 4 -86 18 -112 31 -26 13 -80 29
-120 34 -39 6 -95 21 -123 34 -27 14 -77 27 -110 31 -77 9 -209 68 -224 102
-6 14 -11 83 -11 161 0 125 -10 221 -39 387 -6 33 -16 163 -21 290 -7 146 -19
286 -35 385 -13 85 -25 199 -27 253 -3 88 -1 100 16 113 17 12 104 14 522 14
444 0 504 -2 518 -16 9 -8 16 -17 16 -18 0 -1 9 -53 20 -114 13 -73 24 -196
30 -350 11 -255 16 -306 35 -322 6 -5 44 -14 83 -20 39 -5 89 -19 112 -31 22
-12 72 -25 110 -29 38 -4 89 -18 115 -30 25 -12 83 -28 128 -35 45 -6 101 -22
124 -33 23 -12 76 -27 118 -33 41 -5 100 -21 130 -35 63 -29 140 -34 253 -17
76 12 106 27 98 50 -4 10 14 13 87 14 114 1 139 8 155 42 13 27 15 27 107 27
108 0 123 4 136 36 8 23 13 24 92 24 98 0 147 14 147 40 0 15 10 20 45 26 25
3 56 3 70 0 14 -4 43 -2 64 4 38 10 38 10 50 79 6 42 11 190 11 365 0 246 2
294 14 290 9 -3 19 9 29 35 13 31 16 83 18 249 0 116 -2 215 -6 221 -9 16 -30
14 -45 -4 -11 -13 -85 -15 -553 -15 l-541 0 -29 28 -28 27 -1122 2 c-617 1
-1131 5 -1142 7 -43 11 -55 54 -55 203 0 76 -7 183 -14 238 -8 55 -21 152 -30
215 -9 63 -20 212 -25 330 -6 125 -18 265 -30 335 -12 72 -24 212 -30 350 -7
151 -17 268 -31 340 -14 74 -24 185 -30 343 -6 157 -17 281 -34 385 -32 201
-41 347 -22 373 14 19 44 19 1298 24 706 3 1866 5 2578 5 l1295 0 3 -257z"/>
</g>
</svg>
